<svg width="127" height="124" viewBox="0 0 127 124" fill="none" xmlns="http://www.w3.org/2000/svg">
<path d="M40.7129 15.3953C42.4603 15.4216 44.2078 15.4455 45.9554 15.4669C50.2032 15.5241 54.4493 15.6142 58.6962 15.7226C60.2008 19.9202 61.2069 24.1101 62.716 28.3219C61.62 28.3317 58.5163 28.3119 57.387 28.3219C53.3029 28.3639 49.2196 28.4328 45.136 28.5097C43.3719 28.5391 41.6077 28.5614 39.8434 28.5761C37.3004 28.5987 34.7589 28.6476 32.2164 28.7015C31.0417 28.7034 31.0417 28.7034 29.8434 28.7054C24.6243 28.8501 21.5373 29.8683 17.4477 33.5297C14.8201 37.3495 14.0501 39.9712 14.039 44.6465C14.0295 45.8002 14.02 46.954 14.0102 48.1426C14.0193 49.9971 14.0193 49.9971 14.0287 51.8891C14.0258 53.1688 14.0229 54.4484 14.0199 55.7669C14.0179 58.4708 14.0234 61.1747 14.036 63.8785C14.0522 68.0119 14.0362 72.1443 14.0169 76.2777C14.0189 78.9066 14.0227 81.5355 14.0287 84.1644C14.0226 85.3986 14.0165 86.6328 14.0102 87.9045C14.0522 96.2555 14.0522 96.2555 17.4477 103.71C21.7007 107.706 24.1371 109.069 29.798 109.163C30.9057 109.184 32.0133 109.205 33.1545 109.226C34.3545 109.244 35.5545 109.261 36.7908 109.279C38.0161 109.301 39.2415 109.323 40.5039 109.345C44.4301 109.414 48.3563 109.476 52.2826 109.537C54.9392 109.582 57.5958 109.628 60.2524 109.674C66.776 109.786 73.7983 109.901 80.3221 110.003C80.8251 113.145 81.4473 115.764 82.3342 118.907C82.0957 118.061 83.7933 122.958 82.3342 118.907L83.8433 123.096C81.8311 123.096 73.7827 123.096 70.7645 122.958C57.6857 123.62 53.4164 122.724 42.5364 122.958C18.6199 123.372 18.6199 123.372 8.51892 113.923C1.35566 105.531 0.75678 97.1034 0.851642 86.1939C0.850178 84.8321 0.848714 83.4703 0.847205 82.0673C0.845821 79.1998 0.858316 76.3328 0.881362 73.4654C0.909946 69.8108 0.907146 66.1572 0.894349 62.5026C0.885626 58.9865 0.900894 55.4707 0.914521 51.9546C0.910091 50.0017 0.910091 50.0017 0.905571 48.0094C1.00954 38.011 2.34163 30.3773 9.27593 23.0148C18.5027 14.1364 28.9453 15.0859 40.7129 15.3953Z" fill="#00A3FF"/>
<path d="M60.8433 15.7298C66.9274 15.5997 74.55 15.5747 80.6351 15.5119C82.702 15.4857 84.7688 15.4501 86.8353 15.4046C89.8184 15.3406 92.8003 15.3114 95.7839 15.2884C96.6973 15.2614 97.6107 15.2344 98.5518 15.2065C106.404 15.203 111.806 17.9814 117.749 23.2716C118.358 24 118.968 24.7284 119.595 25.4789C120.22 26.1966 120.845 26.9142 121.488 27.6536C126.447 35.706 126.668 44.1119 126.669 53.4672C126.68 55.3959 126.68 55.3959 126.692 57.3636C126.703 60.0715 126.706 62.7794 126.701 65.4873C126.7 69.6097 126.742 73.7301 126.786 77.8522C126.791 80.4936 126.794 83.1349 126.794 85.7762C126.81 86.9973 126.826 88.2185 126.843 89.4767C126.765 99.3372 124.311 106.571 118.037 113.969C107.92 123.482 98.7223 123.618 85.7727 122.99C84.7755 118.804 83.2797 114.095 82.2826 109.91C83.4857 109.883 85.7294 109.925 86.969 109.898C88.579 109.839 90.1891 109.779 91.7991 109.718C92.5883 109.703 93.3776 109.688 94.1907 109.673C99.7084 109.435 104.924 108.597 109.25 104.747C113.945 98.2869 113.85 92.3423 113.838 84.4109C113.847 83.1636 113.855 81.9164 113.864 80.6313C113.876 78.0007 113.877 75.37 113.868 72.7393C113.862 68.7265 113.908 64.7169 113.959 60.7045C113.964 58.1422 113.965 55.5799 113.963 53.0176C113.981 51.8248 114 50.6321 114.019 49.4032C113.944 42.625 113.224 38.1951 108.859 33.035C104.36 28.7177 99.2803 29.0569 93.4935 28.9698C92.6595 28.9496 91.8255 28.9293 90.9662 28.9084C88.3147 28.8461 85.6632 28.7974 83.0114 28.7491C81.2086 28.7091 79.4058 28.6682 77.6029 28.6265C73.1943 28.5262 68.7857 28.4382 64.3767 28.3567C63.3362 24.1013 61.8404 20.4388 60.8433 15.7298Z" fill="#F17720"/>
<rect x="32.8433" y="0.206543" width="24" height="6" rx="3" transform="rotate(90 32.8433 0.206543)" fill="#6690FF"/>
<rect x="96.8433" y="0.206543" width="24" height="6" rx="3" transform="rotate(90 96.8433 0.206543)" fill="#6690FF"/>
<rect x="25.8433" y="57.2065" width="13" height="13" rx="3" fill="#6690FF"/>
<rect x="24.8433" y="38.2065" width="32" height="6" rx="3" fill="#6690FF"/>
<rect x="25.8433" y="83.2065" width="13" height="14" rx="3" fill="#6690FF"/>
<rect x="58.8433" y="57.2065" width="13" height="13" rx="3" fill="#6690FF"/>
<rect x="58.8433" y="83.2065" width="13" height="14" rx="3" fill="#6690FF"/>
<rect x="91.8433" y="57.2065" width="13" height="13" rx="3" fill="#6690FF"/>
<rect x="91.8433" y="83.2065" width="13" height="14" rx="3" fill="#6690FF"/>
</svg>
