<svg width="23" height="22" viewBox="0 0 23 22" fill="none" xmlns="http://www.w3.org/2000/svg">
<path d="M7.50025 19.5721H5.64303C1.92861 19.5721 1 18.6435 1 14.9291V5.64303C1 1.92861 1.92861 1 5.64303 1H7.03594C8.42885 1 8.73532 1.4086 9.26462 2.11434L10.6575 3.97155C11.0104 4.43586 11.2147 4.71443 12.1433 4.71443H14.9291C18.6435 4.71443 19.5721 5.64303 19.5721 9.35746V11.2147" stroke="white" stroke-width="1.5" stroke-miterlimit="10" stroke-linecap="round" stroke-linejoin="round"/>
<path d="M11.4843 15.7594C8.64701 15.975 8.64701 20.2858 11.4843 20.5013H18.1971C19.006 20.5013 19.8029 20.1843 20.3945 19.6138C22.3866 17.788 21.3241 14.1365 18.7041 13.7942C17.7624 7.8478 9.57669 10.1046 11.5084 15.7721" stroke="white" stroke-width="1.5" stroke-miterlimit="10" stroke-linecap="round" stroke-linejoin="round"/>
<path d="M5.64331 10.2861H10.4163" stroke="white" stroke-width="1.5" stroke-miterlimit="10" stroke-linecap="round" stroke-linejoin="round"/>
</svg>
