<svg width="156" height="17" viewBox="0 0 156 17" fill="none" xmlns="http://www.w3.org/2000/svg">
<mask id="path-1-inside-1_15_494" fill="white">
<path d="M0 4C0 1.79086 1.79086 0 4 0H152C154.209 0 156 1.79086 156 4V13C156 15.2091 154.209 17 152 17H4C1.79086 17 0 15.2091 0 13V4Z"/>
</mask>
<path d="M0 4C0 1.79086 1.79086 0 4 0H152C154.209 0 156 1.79086 156 4V13C156 15.2091 154.209 17 152 17H4C1.79086 17 0 15.2091 0 13V4Z" fill="#BFE9FD" fill-opacity="0.3"/>
<path d="M0 0H156H0ZM156 17H0H156ZM4 17C0.134007 17 -3 13.866 -3 10V7C-3 3.13401 0.134007 0 4 0C3.44772 0 3 1.79086 3 4V13C3 15.2091 3.44772 17 4 17ZM156 0V17V0Z" fill="#034871" mask="url(#path-1-inside-1_15_494)"/>
</svg>
