<svg width="25" height="27" viewBox="0 0 25 27" fill="none" xmlns="http://www.w3.org/2000/svg">
<path d="M16.1515 18.2078L16.1515 25.1342C16.1515 26 15.2045 26 13.3106 26L11.4166 26C9.5227 26 8.57573 26 8.57573 25.1342L8.57573 18.2078C8.57573 17.342 9.5227 16.9091 11.4166 16.9091L13.3106 16.9091C15.2045 16.9091 16.1515 17.342 16.1515 18.2078Z" stroke="white" stroke-width="1.5" stroke-linecap="round" stroke-linejoin="round"/>
<path d="M9.83691 1.81046L2.53242 9.03571C1.51016 9.82547 0.819071 10.9124 1.04187 12.1607L1.04283 22.7263C1.35738 24.5351 3.13977 26 5.02702 26H19.7057C21.5798 26 23.3753 24.5224 23.6899 22.7263V12.1607C23.8996 10.9124 23.2042 9.66982 22.1951 8.88006L14.8958 1.82321C13.4934 0.727737 11.2261 0.727725 9.83691 1.81046Z" stroke="white" stroke-width="1.5" stroke-linecap="round" stroke-linejoin="round"/>
<path d="M13.251 12.1112H1.00736C1.00736 11.6061 1 11.8822 1 11.6061C1 11.33 1.00736 11.6061 1.00736 11.1011H13.251C13.251 11.6061 13.251 11.1011 13.251 11.6061C13.251 12.111 13.251 11.6061 13.251 12.1112Z" fill="white"/>
</svg>
