<svg width="30" height="25" viewBox="0 0 30 25" fill="none" xmlns="http://www.w3.org/2000/svg">
<path d="M15.6625 21.2709H7.7625C3.8125 21.2709 2.5 19.0834 2.5 16.8854V8.1146C2.5 4.82294 3.8125 3.72919 7.7625 3.72919H15.6625C19.6125 3.72919 20.925 4.82294 20.925 8.1146V16.8854C20.925 20.1771 19.6 21.2709 15.6625 21.2709Z" stroke="#023047" stroke-width="1.5" stroke-linecap="round" stroke-linejoin="round"/>
<path d="M24.4001 17.8125L20.925 15.7813V9.20835L24.4001 7.1771C26.1001 6.18751 27.5 6.79168 27.5 8.53126V16.4688C27.5 18.2083 26.1001 18.8125 24.4001 17.8125Z" stroke="#023047" stroke-width="1.5" stroke-linecap="round" stroke-linejoin="round"/>
<path d="M14.375 11.4583C15.4105 11.4583 16.25 10.7588 16.25 9.89581C16.25 9.03287 15.4105 8.33331 14.375 8.33331C13.3395 8.33331 12.5 9.03287 12.5 9.89581C12.5 10.7588 13.3395 11.4583 14.375 11.4583Z" stroke="#023047" stroke-width="1.5" stroke-linecap="round" stroke-linejoin="round"/>
</svg>
