<svg width="18" height="22" viewBox="0 0 18 22" fill="none" xmlns="http://www.w3.org/2000/svg">
<path d="M8.79331 19.35C6.46331 19.35 4.13331 18.98 1.92331 18.24C1.08331 17.95 0.443307 17.36 0.163307 16.59C-0.126693 15.82 -0.0266934 14.97 0.433307 14.21L1.58331 12.3C1.82331 11.9 2.04331 11.1 2.04331 10.63V7.73999C2.04331 4.01999 5.07331 0.98999 8.79331 0.98999C12.5133 0.98999 15.5433 4.01999 15.5433 7.73999V10.63C15.5433 11.09 15.7633 11.9 16.0033 12.31L17.1433 14.21C17.5733 14.93 17.6533 15.8 17.3633 16.59C17.0733 17.38 16.4433 17.98 15.6533 18.24C13.4533 18.98 11.1233 19.35 8.79331 19.35ZM8.79331 2.48999C5.90331 2.48999 3.54331 4.83999 3.54331 7.73999V10.63C3.54331 11.36 3.24331 12.44 2.87331 13.07L1.72331 14.98C1.50331 15.35 1.44331 15.74 1.57331 16.07C1.69331 16.41 1.99331 16.67 2.40331 16.81C6.58331 18.21 11.0133 18.21 15.1933 16.81C15.5533 16.69 15.8333 16.42 15.9633 16.06C16.0933 15.7 16.0633 15.31 15.8633 14.98L14.7133 13.07C14.3333 12.42 14.0433 11.35 14.0433 10.62V7.73999C14.0433 4.83999 11.6933 2.48999 8.79331 2.48999Z" fill="#023047"/>
<path d="M10.654 2.76C10.584 2.76 10.514 2.75 10.444 2.73C10.154 2.65 9.87404 2.59 9.60404 2.55C8.75404 2.44 7.93404 2.5 7.16404 2.73C6.88404 2.82 6.58404 2.73 6.39404 2.52C6.20404 2.31 6.14404 2.01 6.25404 1.74C6.66404 0.69 7.66404 0 8.80404 0C9.94404 0 10.944 0.68 11.354 1.74C11.454 2.01 11.404 2.31 11.214 2.52C11.064 2.68 10.854 2.76 10.654 2.76Z" fill="#023047"/>
<path d="M8.79297 21.63C7.80297 21.63 6.84297 21.23 6.14297 20.53C5.44297 19.83 5.04297 18.87 5.04297 17.88H6.54297C6.54297 18.47 6.78297 19.05 7.20297 19.47C7.62297 19.89 8.20297 20.13 8.79297 20.13C10.033 20.13 11.043 19.12 11.043 17.88H12.543C12.543 19.95 10.863 21.63 8.79297 21.63Z" fill="#023047"/>
</svg>
