<svg width="29" height="25" viewBox="0 0 29 25" fill="none" xmlns="http://www.w3.org/2000/svg">
<path d="M4.87769 6.89191C5.06316 6.89191 5.31262 6.70312 5.31262 6.32754C5.31262 5.95541 5.05682 5.76318 4.87769 5.76318C4.69855 5.76318 4.44275 5.95541 4.44275 6.32754C4.44275 6.70312 4.69221 6.89191 4.87769 6.89191Z" fill="#9E9E9E" stroke="white"/>
<path d="M7.47168 10.2642L7.88796 10.7205C9.13681 12.0895 9.48765 11.948 10.6902 10.5263L10.6902 9.8684" stroke="white" stroke-width="1.5" stroke-miterlimit="10" stroke-linecap="round" stroke-linejoin="round"/>
<path d="M4.49369 17.3211L4.93505 17.3732V17.8177V19.2667C4.93505 19.7828 5.17631 20.2084 5.51009 20.4106L5.5101 20.4105L5.51442 20.4132C5.66761 20.5081 5.83391 20.5526 5.9873 20.5526C6.17338 20.5526 6.368 20.4903 6.54106 20.3616L10.48 17.1946V16.7056C10.4538 16.7489 10.4157 16.7979 10.3613 16.8413L10.3613 16.8414L10.3536 16.8473L6.40649 19.8679L6.40656 19.868L6.39798 19.8743C6.08027 20.1069 5.75238 20.0061 5.58795 19.8925C5.47198 19.8125 5.25668 19.618 5.25668 19.2565V17.0829C5.25668 16.9928 5.22393 16.9183 5.18305 16.8713C5.14251 16.8247 5.10757 16.8175 5.09142 16.8175C3.81466 16.8175 2.73009 16.3376 1.97101 15.4643C1.21809 14.5981 0.821674 13.3879 0.821674 11.9805V5.85757C0.821674 4.45018 1.21809 3.23994 1.97101 2.37371C2.73009 1.5004 3.81466 1.02051 5.09142 1.02051H13.9703C14.1214 1.02051 14.2704 1.01953 14.4162 1.01857C14.8034 1.01603 15.1679 1.01363 15.4875 1.03013C15.9288 1.0529 16.3627 1.1132 16.7352 1.29934C17.5684 1.71566 17.8369 2.60424 17.8369 3.94736V4.29078L18.5631 4.17805C18.4985 2.39813 18.0236 1.55424 17.3807 1.11052C16.6345 0.595557 15.52 0.5 13.9703 0.5H5.1003C3.71223 0.5 2.57739 1.03191 1.78332 1.94548C0.983927 2.86517 0.500053 4.20775 0.500053 5.86778V11.9907C0.500053 15.0506 2.12906 17.0419 4.49369 17.3211ZM16.8283 4.44736H14.5042C13.8447 4.60072 13.465 4.74891 13.1923 4.88692C13.0816 4.94295 12.9841 4.99948 12.8867 5.05926L16.8283 4.44736Z" fill="#9E9E9E" fill-opacity="0.6" stroke="white"/>
<path d="M24.0179 11.3397C23.4944 11.3397 23.083 10.8607 23.083 10.2753C23.083 9.6899 23.5037 9.21094 24.0179 9.21094C24.5322 9.21094 24.9529 9.6899 24.9529 10.2753C24.9529 10.8607 24.5415 11.3397 24.0179 11.3397Z" fill="white"/>
<path d="M14.8052 11.3397C14.2816 11.3397 13.8702 10.8607 13.8702 10.2753C13.8702 9.6899 14.291 9.21094 14.8052 9.21094C15.3194 9.21094 15.7401 9.6899 15.7401 10.2753C15.7401 10.8607 15.3287 11.3397 14.8052 11.3397Z" fill="white"/>
<path d="M21.4231 14.2119L21.0068 14.6682C19.758 16.0372 18.9408 16.0196 17.7383 14.5979L17.3375 14.124" stroke="white" stroke-width="1.5" stroke-miterlimit="10" stroke-linecap="round" stroke-linejoin="round"/>
<path d="M22.9081 25.0003C22.6065 25.0003 22.3049 24.8983 22.0477 24.7044L18.2691 21.8062H14.9251C11.8738 21.8062 9.82483 19.4489 9.82483 15.9384V9.81553C9.82483 6.30507 11.8738 3.94775 14.9251 3.94775H23.7951C26.8464 3.94775 28.8953 6.30507 28.8953 9.81553V15.9384C28.8953 19.1836 27.1391 21.4491 24.4603 21.7654V23.2145C24.4603 23.8778 24.1499 24.4799 23.6443 24.786C23.4137 24.9289 23.1564 25.0003 22.9081 25.0003ZM14.9251 5.46826C12.6366 5.46826 11.1553 7.17247 11.1553 9.80532V15.9282C11.1553 18.5611 12.6366 20.2653 14.9251 20.2653H18.4731C18.6061 20.2653 18.7303 20.3061 18.8456 20.3979L22.7928 23.4186C22.8903 23.49 22.979 23.4594 23.0234 23.4288C23.0677 23.3982 23.1387 23.3369 23.1387 23.2043V21.0306C23.1387 20.6122 23.4403 20.2653 23.804 20.2653C26.0924 20.2653 27.5737 18.5611 27.5737 15.9282V9.80532C27.5737 7.17247 26.0924 5.46826 23.804 5.46826H14.9251Z" fill="white"/>
</svg>
