<svg width="143" height="20" viewBox="0 0 143 20" fill="none" xmlns="http://www.w3.org/2000/svg">
<path d="M9.15483 4.63778C9.09801 4.06487 8.85417 3.61979 8.4233 3.30256C7.99242 2.98532 7.40767 2.8267 6.66903 2.8267C6.16714 2.8267 5.74337 2.89773 5.39773 3.03977C5.05208 3.17708 4.78693 3.36884 4.60227 3.61506C4.42235 3.86127 4.33239 4.14062 4.33239 4.45312C4.32292 4.71354 4.37737 4.94081 4.49574 5.13494C4.61884 5.32907 4.78693 5.49716 5 5.6392C5.21307 5.77651 5.45928 5.89725 5.73864 6.00142C6.01799 6.10085 6.31629 6.18608 6.63352 6.2571L7.94034 6.5696C8.57481 6.71165 9.1572 6.90104 9.6875 7.13778C10.2178 7.37453 10.6771 7.66572 11.0653 8.01136C11.4536 8.35701 11.7543 8.7642 11.9673 9.23295C12.1851 9.7017 12.2964 10.2391 12.3011 10.8452C12.2964 11.7353 12.0691 12.5071 11.6193 13.1605C11.1742 13.8092 10.5303 14.3134 9.6875 14.6733C8.84943 15.0284 7.83854 15.206 6.65483 15.206C5.48059 15.206 4.45786 15.026 3.58665 14.6662C2.72017 14.3063 2.04309 13.7737 1.5554 13.0682C1.07244 12.358 0.819129 11.4796 0.795455 10.4332H3.77131C3.80445 10.9209 3.94413 11.3281 4.19034 11.6548C4.44129 11.9768 4.77509 12.2206 5.19176 12.3864C5.61316 12.5473 6.08902 12.6278 6.61932 12.6278C7.14015 12.6278 7.59233 12.5521 7.97585 12.4006C8.36411 12.2491 8.66477 12.0384 8.87784 11.7685C9.09091 11.4986 9.19744 11.1884 9.19744 10.8381C9.19744 10.5114 9.10038 10.2367 8.90625 10.0142C8.71686 9.79167 8.4375 9.60227 8.06818 9.44602C7.7036 9.28977 7.25616 9.14773 6.72585 9.01989L5.14205 8.62216C3.91572 8.32386 2.94744 7.85748 2.23722 7.22301C1.52699 6.58854 1.17424 5.7339 1.17898 4.65909C1.17424 3.77841 1.40862 3.009 1.8821 2.35085C2.36032 1.69271 3.0161 1.17898 3.84943 0.809659C4.68277 0.44034 5.62973 0.255681 6.69034 0.255681C7.76989 0.255681 8.71212 0.44034 9.51705 0.809659C10.3267 1.17898 10.9564 1.69271 11.4062 2.35085C11.8561 3.009 12.0881 3.77131 12.1023 4.63778H9.15483ZM17.4237 15.206C16.7276 15.206 16.1074 15.0852 15.5629 14.8438C15.0183 14.5975 14.5875 14.2353 14.2702 13.7571C13.9577 13.2741 13.8015 12.6728 13.8015 11.9531C13.8015 11.3471 13.9128 10.8381 14.1353 10.4261C14.3578 10.0142 14.6609 9.68277 15.0444 9.43182C15.4279 9.18087 15.8635 8.99148 16.3512 8.86364C16.8436 8.7358 17.3597 8.64583 17.8995 8.59375C18.534 8.52746 19.0453 8.46591 19.4336 8.40909C19.8219 8.34754 20.1036 8.25758 20.2788 8.1392C20.454 8.02083 20.5415 7.84564 20.5415 7.61364V7.57102C20.5415 7.12121 20.3995 6.7732 20.1154 6.52699C19.8361 6.28078 19.4383 6.15767 18.9222 6.15767C18.3777 6.15767 17.9445 6.27841 17.6225 6.51989C17.3005 6.75663 17.0875 7.05492 16.9833 7.41477L14.185 7.1875C14.3271 6.52462 14.6064 5.9517 15.0231 5.46875C15.4397 4.98106 15.9772 4.60701 16.6353 4.34659C17.2982 4.08144 18.0652 3.94886 18.9364 3.94886C19.5425 3.94886 20.1225 4.01989 20.6765 4.16193C21.2352 4.30398 21.73 4.52415 22.1609 4.82244C22.5965 5.12074 22.9397 5.50426 23.1907 5.97301C23.4416 6.43703 23.5671 6.99337 23.5671 7.64205V15H20.6978V13.4872H20.6126C20.4374 13.8281 20.203 14.1288 19.9094 14.3892C19.6159 14.6449 19.2631 14.8461 18.8512 14.9929C18.4393 15.1349 17.9634 15.206 17.4237 15.206ZM18.2901 13.1179C18.7352 13.1179 19.1282 13.0303 19.4691 12.8551C19.81 12.6752 20.0775 12.4337 20.2717 12.1307C20.4658 11.8277 20.5629 11.4844 20.5629 11.1009V9.94318C20.4682 10.0047 20.338 10.0616 20.1722 10.1136C20.0112 10.161 19.829 10.206 19.6254 10.2486C19.4218 10.2865 19.2182 10.322 19.0146 10.3551C18.811 10.3835 18.6263 10.4096 18.4606 10.4332C18.1055 10.4853 17.7953 10.5682 17.5302 10.6818C17.265 10.7955 17.0591 10.9493 16.9123 11.1435C16.7655 11.3329 16.6921 11.5696 16.6921 11.8537C16.6921 12.2656 16.8413 12.5805 17.1396 12.7983C17.4426 13.0114 17.8261 13.1179 18.2901 13.1179ZM30.8292 19.3182C29.8491 19.3182 29.0086 19.1832 28.3079 18.9134C27.6119 18.6482 27.0579 18.286 26.646 17.8267C26.234 17.3674 25.9665 16.8513 25.8434 16.2784L28.6417 15.902C28.7269 16.1198 28.8619 16.3234 29.0465 16.5128C29.2312 16.7022 29.475 16.8537 29.7781 16.9673C30.0858 17.0857 30.4599 17.1449 30.9002 17.1449C31.5584 17.1449 32.1005 16.9839 32.5266 16.6619C32.9575 16.3447 33.1729 15.812 33.1729 15.0639V13.0682H33.0451C32.9125 13.3712 32.7137 13.6577 32.4485 13.9276C32.1834 14.1974 31.8424 14.4176 31.4258 14.5881C31.0091 14.7585 30.512 14.8438 29.9343 14.8438C29.1152 14.8438 28.3694 14.6544 27.6971 14.2756C27.0295 13.892 26.4968 13.3073 26.0991 12.5213C25.7061 11.7306 25.5096 10.7315 25.5096 9.52415C25.5096 8.28835 25.7108 7.25616 26.1133 6.42756C26.5157 5.59896 27.0508 4.97869 27.7184 4.56676C28.3907 4.15483 29.127 3.94886 29.9272 3.94886C30.538 3.94886 31.0494 4.05303 31.4613 4.26136C31.8732 4.46496 32.2047 4.72064 32.4556 5.02841C32.7113 5.33144 32.9078 5.62973 33.0451 5.9233H33.1587V4.09091H36.163V15.1065C36.163 16.0346 35.9357 16.8111 35.4812 17.4361C35.0266 18.0611 34.3969 18.5298 33.592 18.8423C32.7918 19.1596 31.8709 19.3182 30.8292 19.3182ZM30.8931 12.571C31.3808 12.571 31.7927 12.4503 32.1289 12.2088C32.4698 11.9626 32.7302 11.6122 32.9102 11.1577C33.0948 10.6984 33.1871 10.1491 33.1871 9.50994C33.1871 8.87074 33.0972 8.31676 32.9173 7.84801C32.7373 7.37453 32.4769 7.00758 32.136 6.74716C31.7951 6.48674 31.3808 6.35653 30.8931 6.35653C30.396 6.35653 29.9769 6.49148 29.636 6.76136C29.2951 7.02651 29.0371 7.39583 28.8619 7.86932C28.6867 8.3428 28.5991 8.88968 28.5991 9.50994C28.5991 10.1397 28.6867 10.6842 28.8619 11.1435C29.0418 11.598 29.2998 11.9508 29.636 12.2017C29.9769 12.4479 30.396 12.571 30.8931 12.571ZM41.6815 15.206C40.9854 15.206 40.3652 15.0852 39.8207 14.8438C39.2762 14.5975 38.8453 14.2353 38.5281 13.7571C38.2156 13.2741 38.0593 12.6728 38.0593 11.9531C38.0593 11.3471 38.1706 10.8381 38.3931 10.4261C38.6156 10.0142 38.9187 9.68277 39.3022 9.43182C39.6857 9.18087 40.1213 8.99148 40.609 8.86364C41.1014 8.7358 41.6175 8.64583 42.1573 8.59375C42.7918 8.52746 43.3031 8.46591 43.6914 8.40909C44.0797 8.34754 44.3614 8.25758 44.5366 8.1392C44.7118 8.02083 44.7994 7.84564 44.7994 7.61364V7.57102C44.7994 7.12121 44.6573 6.7732 44.3732 6.52699C44.0939 6.28078 43.6961 6.15767 43.18 6.15767C42.6355 6.15767 42.2023 6.27841 41.8803 6.51989C41.5584 6.75663 41.3453 7.05492 41.2411 7.41477L38.4428 7.1875C38.5849 6.52462 38.8642 5.9517 39.2809 5.46875C39.6976 4.98106 40.235 4.60701 40.8931 4.34659C41.556 4.08144 42.323 3.94886 43.1942 3.94886C43.8003 3.94886 44.3803 4.01989 44.9343 4.16193C45.493 4.30398 45.9878 4.52415 46.4187 4.82244C46.8543 5.12074 47.1976 5.50426 47.4485 5.97301C47.6995 6.43703 47.8249 6.99337 47.8249 7.64205V15H44.9556V13.4872H44.8704C44.6952 13.8281 44.4608 14.1288 44.1673 14.3892C43.8737 14.6449 43.521 14.8461 43.109 14.9929C42.6971 15.1349 42.2212 15.206 41.6815 15.206ZM42.5479 13.1179C42.993 13.1179 43.386 13.0303 43.7269 12.8551C44.0678 12.6752 44.3353 12.4337 44.5295 12.1307C44.7236 11.8277 44.8207 11.4844 44.8207 11.1009V9.94318C44.726 10.0047 44.5958 10.0616 44.43 10.1136C44.2691 10.161 44.0868 10.206 43.8832 10.2486C43.6796 10.2865 43.476 10.322 43.2724 10.3551C43.0688 10.3835 42.8841 10.4096 42.7184 10.4332C42.3633 10.4853 42.0531 10.5682 41.788 10.6818C41.5228 10.7955 41.3169 10.9493 41.1701 11.1435C41.0233 11.3329 40.9499 11.5696 40.9499 11.8537C40.9499 12.2656 41.0991 12.5805 41.3974 12.7983C41.7004 13.0114 42.0839 13.1179 42.5479 13.1179Z" fill="#17A0D6"/>
<path d="M67.6918 5.54688H64.581C64.5241 5.14441 64.4081 4.78693 64.233 4.47443C64.0578 4.1572 63.8329 3.88731 63.5582 3.66477C63.2836 3.44223 62.9664 3.27178 62.6065 3.15341C62.2514 3.03504 61.8655 2.97585 61.4489 2.97585C60.696 2.97585 60.0402 3.16288 59.4815 3.53693C58.9228 3.90625 58.4896 4.44602 58.1818 5.15625C57.8741 5.86174 57.7202 6.71875 57.7202 7.72727C57.7202 8.7642 57.8741 9.63542 58.1818 10.3409C58.4943 11.0464 58.9299 11.5791 59.4886 11.9389C60.0473 12.2988 60.6937 12.4787 61.4276 12.4787C61.8395 12.4787 62.2206 12.4242 62.571 12.3153C62.9261 12.2064 63.241 12.0478 63.5156 11.8395C63.7902 11.6264 64.0175 11.3684 64.1974 11.0653C64.3821 10.7623 64.5099 10.4167 64.581 10.0284L67.6918 10.0426C67.6113 10.7102 67.41 11.3542 67.0881 11.9744C66.7708 12.59 66.3423 13.1416 65.8026 13.6293C65.2675 14.1122 64.6283 14.4957 63.8849 14.7798C63.1463 15.0592 62.3106 15.1989 61.3778 15.1989C60.0805 15.1989 58.9205 14.9053 57.8977 14.3182C56.8797 13.7311 56.0748 12.8812 55.483 11.7685C54.8958 10.6558 54.6023 9.30871 54.6023 7.72727C54.6023 6.1411 54.9006 4.79167 55.4972 3.67898C56.0938 2.56629 56.9034 1.71875 57.9261 1.13636C58.9489 0.549242 60.0994 0.255681 61.3778 0.255681C62.2206 0.255681 63.0019 0.374053 63.7216 0.610795C64.446 0.847538 65.0876 1.19318 65.6463 1.64773C66.205 2.09754 66.6596 2.64915 67.0099 3.30256C67.3651 3.95597 67.5923 4.70407 67.6918 5.54688ZM72.951 15.206C72.255 15.206 71.6347 15.0852 71.0902 14.8438C70.5457 14.5975 70.1148 14.2353 69.7976 13.7571C69.4851 13.2741 69.3288 12.6728 69.3288 11.9531C69.3288 11.3471 69.4401 10.8381 69.6626 10.4261C69.8852 10.0142 70.1882 9.68277 70.5717 9.43182C70.9553 9.18087 71.3909 8.99148 71.8786 8.86364C72.371 8.7358 72.8871 8.64583 73.4268 8.59375C74.0613 8.52746 74.5727 8.46591 74.9609 8.40909C75.3492 8.34754 75.6309 8.25758 75.8061 8.1392C75.9813 8.02083 76.0689 7.84564 76.0689 7.61364V7.57102C76.0689 7.12121 75.9268 6.7732 75.6428 6.52699C75.3634 6.28078 74.9657 6.15767 74.4496 6.15767C73.9051 6.15767 73.4718 6.27841 73.1499 6.51989C72.8279 6.75663 72.6148 7.05492 72.5107 7.41477L69.7124 7.1875C69.8544 6.52462 70.1338 5.9517 70.5504 5.46875C70.9671 4.98106 71.5045 4.60701 72.1626 4.34659C72.8255 4.08144 73.5926 3.94886 74.4638 3.94886C75.0698 3.94886 75.6499 4.01989 76.2038 4.16193C76.7625 4.30398 77.2573 4.52415 77.6882 4.82244C78.1238 5.12074 78.4671 5.50426 78.718 5.97301C78.969 6.43703 79.0945 6.99337 79.0945 7.64205V15H76.2251V13.4872H76.1399C75.9647 13.8281 75.7304 14.1288 75.4368 14.3892C75.1432 14.6449 74.7905 14.8461 74.3786 14.9929C73.9666 15.1349 73.4908 15.206 72.951 15.206ZM73.8175 13.1179C74.2625 13.1179 74.6555 13.0303 74.9964 12.8551C75.3374 12.6752 75.6049 12.4337 75.799 12.1307C75.9931 11.8277 76.0902 11.4844 76.0902 11.1009V9.94318C75.9955 10.0047 75.8653 10.0616 75.6996 10.1136C75.5386 10.161 75.3563 10.206 75.1527 10.2486C74.9491 10.2865 74.7455 10.322 74.5419 10.3551C74.3383 10.3835 74.1536 10.4096 73.9879 10.4332C73.6328 10.4853 73.3227 10.5682 73.0575 10.6818C72.7924 10.7955 72.5864 10.9493 72.4396 11.1435C72.2929 11.3329 72.2195 11.5696 72.2195 11.8537C72.2195 12.2656 72.3686 12.5805 72.6669 12.7983C72.9699 13.0114 73.3535 13.1179 73.8175 13.1179ZM84.4673 0.454545V15H81.4418V0.454545H84.4673ZM91.8626 15.2131C90.7404 15.2131 89.7745 14.9858 88.9648 14.5312C88.1599 14.072 87.5397 13.4233 87.104 12.5852C86.6684 11.7424 86.4506 10.7457 86.4506 9.59517C86.4506 8.47301 86.6684 7.48816 87.104 6.64062C87.5397 5.79309 88.1528 5.13258 88.9435 4.65909C89.739 4.18561 90.6718 3.94886 91.7418 3.94886C92.4615 3.94886 93.1315 4.06487 93.7518 4.29688C94.3768 4.52415 94.9213 4.86742 95.3853 5.3267C95.854 5.78598 96.2186 6.36364 96.479 7.05966C96.7395 7.75095 96.8697 8.56061 96.8697 9.48864V10.3196H87.658V8.4446H94.0217C94.0217 8.009 93.927 7.62311 93.7376 7.28693C93.5482 6.95076 93.2854 6.68797 92.9492 6.49858C92.6178 6.30445 92.2319 6.20739 91.7915 6.20739C91.3323 6.20739 90.9251 6.31392 90.57 6.52699C90.2196 6.73532 89.945 7.01705 89.7461 7.37216C89.5472 7.72254 89.4454 8.11316 89.4407 8.54403V10.3267C89.4407 10.8665 89.5401 11.3329 89.739 11.7259C89.9426 12.1188 90.229 12.4219 90.5984 12.6349C90.9677 12.848 91.4057 12.9545 91.9123 12.9545C92.2485 12.9545 92.5562 12.9072 92.8356 12.8125C93.1149 12.7178 93.354 12.5758 93.5529 12.3864C93.7518 12.197 93.9033 11.965 94.0075 11.6903L96.8058 11.875C96.6637 12.5473 96.3725 13.1345 95.9322 13.6364C95.4966 14.1335 94.9331 14.5218 94.2418 14.8011C93.5553 15.0758 92.7622 15.2131 91.8626 15.2131ZM101.87 8.69318V15H98.8441V4.09091H101.728V6.01562H101.855C102.097 5.38116 102.502 4.87926 103.07 4.50994C103.638 4.13589 104.327 3.94886 105.137 3.94886C105.894 3.94886 106.555 4.11458 107.118 4.44602C107.682 4.77746 108.12 5.25095 108.432 5.86648C108.745 6.47727 108.901 7.20644 108.901 8.05398V15H105.875V8.59375C105.88 7.92614 105.71 7.4053 105.364 7.03125C105.018 6.65246 104.542 6.46307 103.936 6.46307C103.529 6.46307 103.169 6.55066 102.857 6.72585C102.549 6.90104 102.308 7.15672 102.132 7.4929C101.962 7.82434 101.874 8.22443 101.87 8.69318ZM115.305 15.1776C114.477 15.1776 113.726 14.9645 113.054 14.5384C112.386 14.1075 111.856 13.4754 111.463 12.642C111.075 11.804 110.881 10.7765 110.881 9.55966C110.881 8.30966 111.082 7.27036 111.484 6.44176C111.887 5.60843 112.422 4.9858 113.089 4.57386C113.762 4.1572 114.498 3.94886 115.298 3.94886C115.909 3.94886 116.418 4.05303 116.825 4.26136C117.237 4.46496 117.569 4.72064 117.82 5.02841C118.075 5.33144 118.269 5.62973 118.402 5.9233H118.494V0.454545H121.513V15H118.53V13.2528H118.402C118.26 13.5559 118.059 13.8565 117.798 14.1548C117.543 14.4484 117.209 14.6922 116.797 14.8864C116.39 15.0805 115.893 15.1776 115.305 15.1776ZM116.264 12.7699C116.752 12.7699 117.164 12.6373 117.5 12.3722C117.841 12.1023 118.101 11.7259 118.281 11.2429C118.466 10.7599 118.558 10.1941 118.558 9.54545C118.558 8.89678 118.468 8.33333 118.288 7.85511C118.108 7.37689 117.848 7.00758 117.507 6.74716C117.166 6.48674 116.752 6.35653 116.264 6.35653C115.767 6.35653 115.348 6.49148 115.007 6.76136C114.666 7.03125 114.408 7.4053 114.233 7.88352C114.058 8.36174 113.97 8.91572 113.97 9.54545C113.97 10.1799 114.058 10.741 114.233 11.2287C114.413 11.7116 114.671 12.0904 115.007 12.3651C115.348 12.6349 115.767 12.7699 116.264 12.7699ZM127.111 15.206C126.415 15.206 125.795 15.0852 125.25 14.8438C124.706 14.5975 124.275 14.2353 123.958 13.7571C123.645 13.2741 123.489 12.6728 123.489 11.9531C123.489 11.3471 123.6 10.8381 123.823 10.4261C124.045 10.0142 124.348 9.68277 124.732 9.43182C125.115 9.18087 125.551 8.99148 126.039 8.86364C126.531 8.7358 127.047 8.64583 127.587 8.59375C128.221 8.52746 128.733 8.46591 129.121 8.40909C129.509 8.34754 129.791 8.25758 129.966 8.1392C130.141 8.02083 130.229 7.84564 130.229 7.61364V7.57102C130.229 7.12121 130.087 6.7732 129.803 6.52699C129.524 6.28078 129.126 6.15767 128.61 6.15767C128.065 6.15767 127.632 6.27841 127.31 6.51989C126.988 6.75663 126.775 7.05492 126.671 7.41477L123.873 7.1875C124.015 6.52462 124.294 5.9517 124.711 5.46875C125.127 4.98106 125.665 4.60701 126.323 4.34659C126.986 4.08144 127.753 3.94886 128.624 3.94886C129.23 3.94886 129.81 4.01989 130.364 4.16193C130.923 4.30398 131.417 4.52415 131.848 4.82244C132.284 5.12074 132.627 5.50426 132.878 5.97301C133.129 6.43703 133.255 6.99337 133.255 7.64205V15H130.385V13.4872H130.3C130.125 13.8281 129.891 14.1288 129.597 14.3892C129.303 14.6449 128.951 14.8461 128.539 14.9929C128.127 15.1349 127.651 15.206 127.111 15.206ZM127.978 13.1179C128.423 13.1179 128.816 13.0303 129.157 12.8551C129.498 12.6752 129.765 12.4337 129.959 12.1307C130.153 11.8277 130.25 11.4844 130.25 11.1009V9.94318C130.156 10.0047 130.025 10.0616 129.86 10.1136C129.699 10.161 129.516 10.206 129.313 10.2486C129.109 10.2865 128.906 10.322 128.702 10.3551C128.498 10.3835 128.314 10.4096 128.148 10.4332C127.793 10.4853 127.483 10.5682 127.218 10.6818C126.953 10.7955 126.747 10.9493 126.6 11.1435C126.453 11.3329 126.38 11.5696 126.38 11.8537C126.38 12.2656 126.529 12.5805 126.827 12.7983C127.13 13.0114 127.514 13.1179 127.978 13.1179ZM135.602 15V4.09091H138.535V5.99432H138.649C138.848 5.31723 139.181 4.80587 139.65 4.46023C140.119 4.10985 140.659 3.93466 141.27 3.93466C141.421 3.93466 141.584 3.94413 141.76 3.96307C141.935 3.98201 142.089 4.00805 142.221 4.04119V6.72585C142.079 6.68324 141.883 6.64536 141.632 6.61222C141.381 6.57907 141.151 6.5625 140.943 6.5625C140.498 6.5625 140.1 6.65956 139.75 6.85369C139.404 7.04309 139.129 7.30824 138.926 7.64915C138.727 7.99006 138.627 8.38305 138.627 8.82812V15H135.602Z" fill="#F89321"/>
</svg>
